<svg width="38" height="48" viewBox="0 0 38 48" fill="none" xmlns="http://www.w3.org/2000/svg">
<path d="M33.8841 21.5575L33.5487 20.9691C33.5619 16.743 31.601 15.0204 29.3144 13.7109C30.0062 13.5286 30.7208 13.3784 30.9167 12.5095C32.1057 12.2052 32.3542 11.6548 32.4736 11.0718C32.7845 10.8646 33.8252 10.2826 33.7162 9.28171C34.2988 8.87962 34.6235 8.36346 34.4584 7.63235C35.0845 6.94925 35.2493 6.38489 34.9835 5.86464C35.7352 4.93084 35.4017 4.44694 35.0806 3.95681C35.6436 2.93576 35.1469 1.84104 33.5729 2.0243C32.947 1.1045 31.5821 1.31322 31.3711 1.31749C31.135 1.02229 30.8232 0.76926 29.864 0.891888C29.2427 0.337827 28.5481 0.43247 27.8316 0.704545C26.9808 0.0432087 26.4178 0.573366 25.7747 0.77373C24.7447 0.442187 24.5089 0.896358 24.0029 1.08137C22.8794 0.847579 22.538 1.35655 21.9994 1.8941L21.3729 1.88185C19.6784 2.8654 18.8368 4.86807 18.5385 5.89768C18.2399 4.86788 17.4 2.86521 15.706 1.88185L15.0796 1.8941C14.5405 1.35655 14.199 0.847385 13.0758 1.08117C12.5697 0.896358 12.3347 0.442187 11.304 0.77373C10.8819 0.642162 10.4936 0.368727 10.0365 0.382719C9.79726 0.389716 9.54015 0.477363 9.24766 0.70474C8.53094 0.43247 7.83637 0.338021 7.21507 0.892083C6.25581 0.769455 5.94409 1.02248 5.70777 1.31769C5.4973 1.31322 4.13207 1.1045 3.5059 2.0243C1.93253 1.84104 1.43522 2.93595 1.99861 3.95681C1.67736 4.44674 1.34446 4.93104 2.09578 5.86503C1.83011 6.38528 1.99491 6.94964 2.62108 7.63274C2.45589 8.36404 2.78082 8.88001 3.36326 9.2821C3.25423 10.2829 4.29512 10.8648 4.60587 11.0722C4.72519 11.6554 4.97394 12.2055 6.16272 12.5099C6.35861 13.379 7.0732 13.529 7.76505 13.7115C5.47845 15.0207 3.51756 16.7432 3.53078 20.9697L3.19574 21.5581C0.573905 23.1288 -1.78499 28.1765 1.90377 32.2792C2.14475 33.5636 2.54878 34.486 2.9087 35.507C3.44683 39.6212 6.95893 41.5475 7.88534 41.7754C9.24261 42.7938 10.6883 43.76 12.6447 44.4371C14.489 46.3105 16.4868 47.0245 18.4957 47.0234C18.5252 47.0234 18.5552 47.0238 18.5845 47.0234C20.5934 47.0245 22.5914 46.3105 24.4355 44.4371C26.3919 43.7602 27.8376 42.7938 29.1951 41.7754C30.1213 41.5475 33.6334 39.6212 34.1715 35.507C34.5312 34.4862 34.9355 33.5636 35.1762 32.2792C38.865 28.1762 36.5061 23.128 33.8841 21.5575ZM31.8657 20.8356C31.7289 22.5378 22.8573 14.9074 24.389 14.654C28.5462 13.9626 32.0054 16.3953 31.8657 20.8356ZM27.9488 29.3183C25.7175 30.7581 22.5024 29.8286 20.7673 27.2425C19.0323 24.6567 19.4346 21.3927 21.6658 19.9531C23.897 18.5132 27.1121 19.4425 28.8472 22.0286C30.5821 24.6147 30.18 27.8784 27.9488 29.3183ZM21.7643 3.04867C21.8412 3.43093 21.9281 3.6725 22.0274 3.74382C22.5205 3.21521 22.9235 2.67379 23.5584 2.1652C23.5606 2.4639 23.4076 2.78806 23.7856 3.02515C24.1261 2.56729 24.5861 2.15859 25.1971 1.8117C24.9029 2.31912 25.1466 2.47323 25.3048 2.6835C25.7712 2.28336 26.2145 1.87816 27.075 1.5643C26.8399 1.85076 26.511 2.13061 26.8597 2.45962C27.3403 2.15956 27.8236 1.85989 28.965 1.6467C28.7078 1.93335 28.1761 2.22 28.4984 2.50685C29.1016 2.27636 29.7691 2.10904 30.5078 2.01206C30.1541 2.30279 29.8593 2.58789 30.1491 2.81313C30.7949 2.61451 31.6842 2.3471 32.5534 2.57759L32.0031 3.13126C31.942 3.2055 33.2902 3.18898 34.1801 3.202C33.8555 3.65306 33.5242 4.08858 33.3308 4.86321C33.419 4.95241 33.86 4.90286 34.2757 4.86321C33.8493 5.76067 33.1089 5.98708 32.9361 6.37129C33.1965 6.56854 33.558 6.51704 33.9529 6.38295C33.6458 7.01533 33.0022 7.4487 32.4936 7.96156C32.6222 8.0529 32.8469 8.10732 33.3788 8.04416C32.9089 8.54361 32.3412 9.00031 31.6682 9.41075C31.7875 9.54834 32.1972 9.5431 32.5773 9.55204C31.9679 10.1485 31.1833 10.4577 30.4484 10.8479C30.8147 11.0982 31.0768 11.0399 31.3575 11.0364C30.8374 11.4636 29.9534 11.6859 29.1327 11.9436C29.2887 12.1863 29.445 12.2524 29.7787 12.3206C28.91 12.8012 27.6656 12.5816 27.3146 12.8272C27.3992 13.0688 27.6382 13.2262 27.9247 13.3574C26.526 13.4386 22.701 13.3065 21.9678 10.412C23.3995 8.83901 26.0126 6.99298 30.507 4.71007C27.0101 5.88038 23.855 7.44054 21.2143 9.58721C18.1092 8.14211 20.2494 4.49611 21.7643 3.04867ZM18.6304 13.4882C20.832 13.4643 23.558 15.1061 23.5472 16.6532C23.5374 18.0188 21.6327 19.1242 18.6473 19.1032C15.7238 19.0688 13.7554 17.7141 13.7622 16.3908C13.768 15.302 16.149 13.4246 18.6304 13.4882ZM7.42748 12.321C7.76116 12.2528 7.91722 12.1865 8.07327 11.944C7.25258 11.6861 6.36852 11.4639 5.84847 11.0368C6.1291 11.0403 6.39107 11.0986 6.75759 10.8483C6.02241 10.458 5.23786 10.1489 4.62841 9.55243C5.00834 9.5431 5.4182 9.54854 5.53733 9.41095C4.86453 9.00031 4.29687 8.54361 3.82695 8.04416C4.35905 8.10732 4.58352 8.0529 4.71217 7.96156C4.20358 7.44851 3.55974 7.01513 3.25287 6.38295C3.64777 6.51704 4.00924 6.56835 4.26966 6.37129C4.0967 5.98708 3.35626 5.76067 2.92988 4.86321C3.34577 4.90286 3.78672 4.95241 3.87495 4.86321C3.68178 4.08877 3.35063 3.65326 3.02589 3.20219C3.91577 3.18917 5.2639 3.20569 5.20288 3.13145L4.6527 2.57778C5.52179 2.3473 6.41128 2.61471 7.05687 2.81352C7.34683 2.58828 7.05182 2.30318 6.69793 2.01225C7.43661 2.10942 8.10417 2.27675 8.7074 2.50724C9.02981 2.22039 8.49829 1.93374 8.24099 1.64709C9.38215 1.86028 9.86586 2.15995 10.3463 2.46001C10.6949 2.1308 10.3663 1.85115 10.1309 1.56469C10.9915 1.87855 11.4348 2.28375 11.9014 2.68389C12.0596 2.47362 12.3033 2.3195 12.009 1.81209C12.6198 2.15898 13.08 2.56768 13.4205 3.02554C13.7985 2.78845 13.6458 2.46429 13.6477 2.16539C14.2826 2.67417 14.6855 3.2156 15.1789 3.74421C15.2782 3.67308 15.3653 3.43132 15.442 3.04905C16.9567 4.49649 19.097 8.1423 15.9922 9.5878C13.3513 7.44248 10.1976 5.88291 6.70279 4.7126C11.1949 6.99414 13.8071 8.84017 15.2382 10.4122C14.5049 13.3069 10.6799 13.439 9.28148 13.3578C9.56774 13.2264 9.80678 13.0692 9.89151 12.8276C9.54053 12.582 8.29618 12.8016 7.42748 12.321ZM12.903 14.5236C14.4346 14.777 5.56299 22.4074 5.42637 20.7054C5.28664 16.2655 8.74549 13.8322 12.903 14.5236ZM3.48336 31.5413C1.32736 29.8333 0.63279 24.831 4.63016 22.5829C7.0388 21.9468 5.44327 32.399 3.48336 31.5413ZM11.7731 40.4788C10.5571 41.2016 7.60414 40.9038 5.50527 37.9339C4.08989 35.4419 4.27218 32.906 5.26623 32.1611C6.75254 31.2693 9.04885 32.4738 10.8164 34.4937C12.3561 36.3215 13.0583 39.5324 11.7731 40.4788ZM9.36038 29.5791C7.12917 28.1392 6.72689 24.8755 8.46195 22.2892C10.197 19.7032 13.4122 18.7738 15.6432 20.2137C17.8744 21.6535 18.2767 24.9173 16.5416 27.5032C14.8069 30.0894 11.5916 31.0188 9.36038 29.5791ZM18.6786 45.5691C16.0039 45.6826 13.3813 43.411 13.4157 42.6235C13.3756 41.4692 16.6724 40.5678 18.8222 40.6207C20.9854 40.5276 23.8882 41.3069 23.8939 42.3408C23.9296 43.3447 21.2611 45.6131 18.6786 45.5691ZM24.0392 34.1851C24.055 36.8862 21.6566 39.0873 18.6828 39.1017C15.7091 39.1159 13.2855 36.9377 13.2697 34.2368V34.1853C13.2542 31.4842 15.6521 29.2829 18.6261 29.2687C21.5999 29.2545 24.0235 31.4325 24.039 34.1336C24.0394 34.1508 24.0395 34.168 24.0392 34.1851ZM31.531 38.0775C29.2262 41.2274 26.1058 41.3502 24.9437 40.4728C23.7281 39.3435 24.6561 35.837 26.3223 33.9144C28.2292 31.7938 30.2678 30.4085 31.6878 31.4906C32.6438 32.4289 33.2047 35.962 31.531 38.0775ZM33.6151 31.4115C31.655 32.2691 30.0591 21.8166 32.4683 22.4525C36.4655 24.7008 35.7709 29.7033 33.6151 31.4115ZM33.5654 15.2271H34.1455V14.1964H34.7258C35.0177 14.1964 35.1247 14.3176 35.1654 14.5951C35.1949 14.8066 35.1873 15.0606 35.2581 15.2273H35.838C35.7344 15.079 35.7379 14.7691 35.727 14.6029C35.7081 14.3361 35.6273 14.0595 35.3428 13.9857V13.9785C35.6347 13.86 35.7604 13.6273 35.7604 13.3158C35.7604 12.9178 35.4613 12.5894 34.9881 12.5894H33.5656L33.5654 15.2271ZM34.1455 13.0398H34.7808C35.0398 13.0398 35.1799 13.1512 35.1799 13.4052C35.1799 13.6713 35.0398 13.7826 34.7808 13.7826H34.1455V13.0398ZM32.1366 13.9402C32.1366 15.3023 33.2408 16.4072 34.6037 16.4072C35.9666 16.4072 37.0709 15.3025 37.0709 13.9402C37.0709 12.5773 35.9664 11.4727 34.6037 11.4727C33.2408 11.4727 32.1366 12.5773 32.1366 13.9402ZM36.6598 13.9402C36.6598 15.0761 35.7392 15.9963 34.6037 15.9963C33.4682 15.9963 32.5476 15.0761 32.5476 13.9402C32.5476 12.8035 33.4682 11.8841 34.6037 11.8841C35.7392 11.8841 36.6598 12.8035 36.6598 13.9402Z" fill="black"/>
</svg>
